<svg id="1715494072" display="block" role="presentation" viewBox="0 0 24 24" xmlns="http://www.w3.org/2000/svg"><path d="M 0 9 C 0 4.029 4.029 0 9 0 C 13.971 0 18 4.029 18 9 C 18 13.971 13.971 18 9 18 C 4.029 18 0 13.971 0 9 Z" fill-opacity="var(--1m6trwb, 0)" fill="var(--21h8s6, rgb(0, 0, 0))" height="18px" id="V5dzmvwD2" transform="translate(3 3)" width="18px"></path><path d="M 0 9 C 0 4.029 4.029 0 9 0 C 13.971 0 18 4.029 18 9 C 18 13.971 13.971 18 9 18 C 4.029 18 0 13.971 0 9 Z" fill="transparent" height="18px" id="cqoDQDnMd" stroke-dasharray="" stroke-linecap="round" stroke-linejoin="round" stroke-width="var(--pgex8v, 1.5)" stroke="var(--21h8s6, rgb(0, 0, 0))" transform="translate(3 3)" width="18px"></path><path d="M 7.5 9 C 7.5 15 3.75 18 3.75 18 C 3.75 18 0 15 0 9 C 0 3 3.75 0 3.75 0 C 3.75 0 7.5 3 7.5 9 Z" fill="transparent" height="18px" id="oYeOnu8K6" stroke-dasharray="" stroke-linecap="round" stroke-linejoin="round" stroke-width="var(--pgex8v, 1.5)" stroke="var(--21h8s6, rgb(0, 0, 0))" transform="translate(8.25 3)" width="7.5px"></path><path d="M 0 0 L 16.976 0" fill="transparent" height="1px" id="ewqzBfqcM" stroke-dasharray="" stroke-linecap="round" stroke-linejoin="round" stroke-width="var(--pgex8v, 1.5)" stroke="var(--21h8s6, rgb(0, 0, 0))" transform="translate(3.512 9)" width="16.97625px"></path><path d="M 0 0 L 16.976 0" fill="transparent" height="1px" id="yO7sJds10" stroke-dasharray="" stroke-linecap="round" stroke-linejoin="round" stroke-width="var(--pgex8v, 1.5)" stroke="var(--21h8s6, rgb(0, 0, 0))" transform="translate(3.512 15)" width="16.97625px"></path></svg>